<svg id="visual" viewBox="0 0 900 600" width="900" height="600" xmlns="http://www.w3.org/2000/svg" xmlns:xlink="http://www.w3.org/1999/xlink" version="1.1"><path d="M0 363L129 363L129 286L257 286L257 281L386 281L386 279L514 279L514 290L643 290L643 315L771 315L771 285L900 285L900 362L900 601L900 601L771 601L771 601L643 601L643 601L514 601L514 601L386 601L386 601L257 601L257 601L129 601L129 601L0 601Z" fill="#560090"></path><path d="M0 417L129 417L129 407L257 407L257 371L386 371L386 438L514 438L514 449L643 449L643 401L771 401L771 404L900 404L900 449L900 601L900 601L771 601L771 601L643 601L643 601L514 601L514 601L386 601L386 601L257 601L257 601L129 601L129 601L0 601Z" fill="#9d007c"></path><path d="M0 448L129 448L129 442L257 442L257 469L386 469L386 512L514 512L514 499L643 499L643 446L771 446L771 482L900 482L900 446L900 601L900 601L771 601L771 601L643 601L643 601L514 601L514 601L386 601L386 601L257 601L257 601L129 601L129 601L0 601Z" fill="#c62368"></path></svg>